<svg xmlns="http://www.w3.org/2000/svg"><symbol viewBox="0 0 512 512" id="icon-author"><circle cx="277.823" cy="301.714" r="9.143"/><path d="M486.255 220.993c.205-.209.48-.326.705-.516a45.243 45.243 0 0 1 19.435-9.281v-64.911H181.002l-22.036 22.068v14.504a9.143 9.143 0 0 1-18.286 0v-14.5l-22.098-22.098-107.469.022a27.413 27.413 0 0 1-5.433 27.433 27.339 27.339 0 0 1 7 18.286 27.432 27.432 0 0 1-7.076 18.304c9.433 10.358 9.435 26.193.004 36.553a27.277 27.277 0 0 1 6.83 15.737c.303.818.477 1.677.514 2.549 0 .228-.054 1.37-.071 1.598a9.32 9.32 0 0 1-.544 2.036 27.374 27.374 0 0 1-6.671 14.651c9.344 10.402 9.352 26.173.018 36.585a27.233 27.233 0 0 1 6.996 18.272 27.6 27.6 0 0 1-2.875 12.219c-.143.36-.31.711-.5 1.049a27.907 27.907 0 0 1-3.621 5.027A27.4 27.4 0 0 1 11.113 384h107.531l22.036-22.068v-14.504a9.143 9.143 0 0 1 18.286 0v14.5l22.098 22.098L506.395 384v-83.165a45.672 45.672 0 0 1-35.184-33.586 45.671 45.671 0 0 1 15.044-46.256zM113.252 347.429c-.01 10.095-8.191 18.276-18.286 18.286H49.252c-10.095-.01-18.276-8.191-18.286-18.286V182.857c.01-10.095 8.191-18.276 18.286-18.286h45.714c10.095.01 18.276 8.191 18.286 18.286v164.572zm45.714-36.572a9.143 9.143 0 0 1-18.286 0v-27.429a9.143 9.143 0 0 1 18.286 0v27.429zm0-64a9.143 9.143 0 0 1-18.286 0v-27.429a9.143 9.143 0 0 1 18.286 0v27.429zm292.572 100.572c-.01 10.095-8.191 18.276-18.286 18.286H204.681c-10.095-.01-18.276-8.191-18.286-18.286V182.857c.01-10.095 8.191-18.276 18.286-18.286h228.571c10.095.01 18.276 8.191 18.286 18.286v164.572z"/><circle cx="350.966" cy="301.714" r="9.143"/><path d="M49.252 182.857v18.286h9.143a9.143 9.143 0 0 1 0 18.286h-9.143v18.286h18.286a9.143 9.143 0 0 1 0 18.286H49.252v18.286h18.286a9.143 9.143 0 0 1 0 18.286H49.252v18.286h9.143a9.143 9.143 0 0 1 0 18.286h-9.143v18.286H94.98l-.013-164.571H49.252zm82.259-49.527l18.313 18.313 18.313-18.313a18.317 18.317 0 0 1 12.866-5.33h290.991C426.309 48.798 341.828 0 250.395 0S74.481 48.798 28.797 128h89.848a18.321 18.321 0 0 1 12.866 5.33zm73.17 49.527v164.571h228.585l-.013-164.571H204.681zm173.714 118.857c0 15.148-12.28 27.429-27.429 27.429s-27.429-12.28-27.429-27.429 12.28-27.429 27.429-27.429c3.122.031 6.215.601 9.143 1.685v-53.975l-54.857 13.714v66.004c0 15.148-12.28 27.429-27.429 27.429s-27.429-12.28-27.429-27.429 12.28-27.429 27.429-27.429c3.122.031 6.215.601 9.143 1.685V228.57a9.144 9.144 0 0 1 6.924-8.87l73.143-18.286a9.148 9.148 0 0 1 11.362 8.87v91.43zm-210.259 95.241l-18.313-18.313-18.313 18.313a18.317 18.317 0 0 1-12.866 5.33H40.219C88.12 471.027 166.61 512 250.395 512s162.275-40.972 210.176-109.714H181.002a18.318 18.318 0 0 1-12.866-5.331z"/></symbol><symbol viewBox="0 0 338.376 338.376" id="icon-category"><path d="M91.921 328.144c78.347-11.293 93.856-50.108 91.431-107.835-.806-17.524-1.579-35.041-2.396-52.578v-50.028c11.289-20.65 66.636-2.38 76.494-1.032 27.675 3.781 50.79-2.158 80.481-39.573l.444-6.091-1.479-2.901-5.883-1.617c-42.146 10.487-71.136-19.424-101.825-43.116-34.29-26.483-56.367-10.97-65.077-1.873-3.956 1.901-6.705 5.907-6.705 10.583v18.48c-.134 4.186-.114 8.368 0 12.562v138.953c-29.116-11.217-56.908-13.886-86.46-4.929-31.708 9.605-62.592 33.679-69.124 65.017-13.312 63.998 49.326 71.841 90.099 65.978z"/></symbol><symbol viewBox="0 0 60 60" id="icon-collection"><path d="M5 10h3v40H5zm47 0h3v40h-3zm5 4h3v32h-3zM0 14h3v32H0zm10 40h40V6H10v48zm9.5-18c1.746 0 3.331.642 4.5 1.68V18c0-.492.358-.911.844-.987l19-3a.99.99 0 0 1 .805.228A.995.995 0 0 1 45 15v21c0 3.309-2.916 6-6.5 6S32 39.309 32 36s2.916-6 6.5-6c1.746 0 3.331.642 4.5 1.68v-9.51l-17 2.684v17.248c0 .013-.007.025-.008.038C25.911 45.383 23.033 48 19.5 48c-3.584 0-6.5-2.691-6.5-6s2.916-6 6.5-6z"/></symbol><symbol viewBox="0 0 14 14" id="icon-email"><path d="M7 9L5.268 7.484.316 11.729c.18.167.423.271.691.271h11.986c.267 0 .509-.104.688-.271L8.732 7.484 7 9z"/><path d="M13.684 2.271A1.007 1.007 0 0 0 12.993 2H1.007c-.267 0-.509.104-.689.273L7 8l6.684-5.729zM0 2.878v8.308l4.833-4.107zm9.167 4.201L14 11.186V2.875z"/></symbol><symbol viewBox="0 0 96.124 96.123" id="icon-facebook"><path d="M72.089.02L59.624 0C45.62 0 36.57 9.285 36.57 23.656v10.907H24.037a1.96 1.96 0 0 0-1.96 1.961v15.803a1.96 1.96 0 0 0 1.96 1.96H36.57v39.876a1.96 1.96 0 0 0 1.96 1.96h16.352a1.96 1.96 0 0 0 1.96-1.96V54.287h14.654a1.96 1.96 0 0 0 1.96-1.96l.006-15.803a1.963 1.963 0 0 0-1.961-1.961H56.842v-9.246c0-4.444 1.059-6.7 6.848-6.7l8.397-.003a1.96 1.96 0 0 0 1.959-1.96V1.98A1.96 1.96 0 0 0 72.089.02z"/></symbol><symbol viewBox="0 0 32 32" id="icon-list"><path d="M12 2h20v4H12V2zm0 12h20v4H12v-4zm0 12h20v4H12v-4zM0 4a4 4 0 1 1 8 0 4 4 0 0 1-8 0zm0 12a4 4 0 1 1 8 0 4 4 0 0 1-8 0zm0 12a4 4 0 1 1 8 0 4 4 0 0 1-8 0z"/></symbol><symbol viewBox="0 0 32 32" id="icon-music"><path d="M29.125 1H31v21.563c0 2.589-2.938 4.688-6.563 4.688s-6.563-2.099-6.563-4.688c0-2.589 2.938-4.688 6.563-4.688 1.836 0 3.496.539 4.688 1.407V8.5l-15 3.333v14.479c0 2.589-2.938 4.688-6.563 4.688S.999 28.901.999 26.312c0-2.589 2.938-4.688 6.563-4.688 1.836 0 3.496.539 4.688 1.407V4.749L29.125.999z"/></symbol><symbol viewBox="0 0 512.479 512.479" id="icon-ok"><path d="M256.239 277.333c76.583 0 138.667-62.083 138.667-138.667S332.823 0 256.239 0 117.573 62.083 117.573 138.667c.094 76.544 62.122 138.572 138.666 138.666zm0-213.333c41.237 0 74.667 33.429 74.667 74.667s-33.429 74.667-74.667 74.667-74.667-33.429-74.667-74.667S215.002 64 256.239 64z"/><path d="M392.069 343.04a53.72 53.72 0 0 0 24.171-44.8 38.698 38.698 0 0 0-21.696-35.307 40.534 40.534 0 0 0-42.667 4.011c-56.983 41.543-134.27 41.543-191.253 0a40.747 40.747 0 0 0-42.667-4.011 38.74 38.74 0 0 0-21.717 35.285 53.78 53.78 0 0 0 24.171 44.8 246.275 246.275 0 0 0 62.507 29.867 212.318 212.318 0 0 0 11.627 3.243l-64.469 63.04c-16.912 16.409-17.321 43.42-.912 60.333 16.409 16.912 43.42 17.321 60.333.912.352-.342.698-.689 1.038-1.043l65.707-68.011 65.835 68.139c16.395 16.925 43.407 17.355 60.332.96 16.925-16.395 17.355-43.407.96-60.332a42.943 42.943 0 0 0-1.047-1.044l-64.363-62.976a270.92 270.92 0 0 0 11.669-3.264 245.352 245.352 0 0 0 62.441-29.802z"/></symbol><symbol viewBox="0 0 314.068 314.068" id="icon-play"><path d="M293.002 78.53C249.646 3.435 153.618-22.296 78.529 21.068 3.434 64.418-22.298 160.442 21.066 235.534c43.35 75.095 139.375 100.83 214.465 57.47 75.096-43.365 100.84-139.384 57.471-214.474zm-73.168 187.271c-60.067 34.692-136.894 14.106-171.576-45.973C13.568 159.761 34.161 82.935 94.23 48.26c60.071-34.69 136.894-14.106 171.578 45.971 34.685 60.076 14.098 136.886-45.974 171.57zm-6.279-115.149l-82.214-47.949c-7.492-4.374-13.535-.877-13.493 7.789l.421 95.174c.038 8.664 6.155 12.191 13.669 7.851l81.585-47.103c7.506-4.332 7.522-11.388.032-15.762z"/></symbol><symbol viewBox="0 0 466.466 466.466" id="icon-rock"><path d="M147.932 288.2s9.359 24.08 12.343 33.365h-16.268v14.788c-10.213 1.495-27.569 7.852-27.569 15.473 0 7.61 17.356 13.967 27.569 15.461v14.792h24.919v84.388h188.219v-84.388h14.218v-14.752c10.167-1.41 27.868-7.811 27.868-15.501 0-7.697-17.701-14.105-27.868-15.508v-14.752h-11.774V56.693c0-14.609-11.846-26.453-26.457-26.453s-26.457 11.844-26.457 26.453v54.138H200.852V26.455C200.852 11.844 189.008 0 174.395 0c-14.607 0-26.457 11.844-26.457 26.455v153.084s-41.575-35.911-65.194-16.322c-23.624 19.588-13.229 36.159-13.229 36.159l78.417 88.824zm215.588 41.216v7.254c-6.652 1.855-11.565 7.902-11.565 15.155 0 7.25 4.913 13.293 11.565 15.148v7.254H151.855v-7.161c6.817-1.748 11.872-7.883 11.872-15.241 0-7.369-5.055-13.5-11.872-15.248v-7.161H363.52z"/><path d="M202.884 367.619c8.724 0 15.797-7.077 15.797-15.794 0-8.724-7.073-15.801-15.797-15.801-8.72 0-23.644 7.077-23.644 15.801 0 8.725 14.924 15.794 23.644 15.794z"/><circle cx="257.84" cy="351.822" r="15.797"/><path d="M312.793 367.619c8.725 0 23.645-7.077 23.645-15.794 0-8.724-14.92-15.801-23.645-15.801-8.724 0-15.793 7.077-15.793 15.801 0 8.725 7.069 15.794 15.793 15.794z"/></symbol><symbol viewBox="0 0 490.659 490.659" id="icon-twitter"><path d="M487.84 92.931a10.666 10.666 0 0 0-12.8-2.261 91.11 91.11 0 0 1-13.632 4.928 95.99 95.99 0 0 0 16.213-31.211c1.513-5.693-1.876-11.535-7.569-13.048a10.664 10.664 0 0 0-8.857 1.571 224.2 224.2 0 0 1-51.328 20.075c-36.787-34.722-92.823-39.05-134.507-10.389-32.109 21.71-49.786 59.232-46.08 97.813A252.588 252.588 0 0 1 52.384 65.134a11.03 11.03 0 0 0-9.067-3.989 10.664 10.664 0 0 0-8.533 5.205 103.25 103.25 0 0 0-11.776 80.149 114.143 114.143 0 0 0 18.539 38.763 56.635 56.635 0 0 1-10.837-6.933c-4.575-3.711-11.292-3.011-15.004 1.564a10.667 10.667 0 0 0-2.383 6.714c.634 39.467 22.306 75.588 56.832 94.72a79.104 79.104 0 0 1-13.739-2.944c-5.641-1.697-11.59 1.5-13.287 7.141a10.675 10.675 0 0 0 .487 7.451 116.412 116.412 0 0 0 80.811 66.133 187.945 187.945 0 0 1-112.533 23.168 10.517 10.517 0 0 0-11.371 7.296 10.667 10.667 0 0 0 4.907 12.587 319.679 319.679 0 0 0 157.653 44.8 270.763 270.763 0 0 0 149.632-45.76c84.544-56.107 137.237-156.843 129.899-246.976a199.261 199.261 0 0 0 46.379-48.341 10.67 10.67 0 0 0-1.153-12.951z"/></symbol><symbol viewBox="0 0 548.358 548.358" id="icon-vk"><path d="M545.451 400.298c-.664-1.431-1.283-2.618-1.858-3.569-9.514-17.135-27.695-38.167-54.532-63.102l-.567-.571-.284-.28-.287-.287h-.288c-12.18-11.611-19.893-19.418-23.123-23.415-5.91-7.614-7.234-15.321-4.004-23.13 2.282-5.9 10.854-18.36 25.696-37.397 7.807-10.089 13.99-18.175 18.556-24.267 32.931-43.78 47.208-71.756 42.828-83.939l-1.701-2.847c-1.143-1.714-4.093-3.282-8.846-4.712-4.764-1.427-10.853-1.663-18.278-.712l-82.224.568c-1.332-.472-3.234-.428-5.712.144l-3.713.859-1.431.715-1.136.859c-.952.568-1.999 1.567-3.142 2.995-1.137 1.423-2.088 3.093-2.848 4.996-8.952 23.031-19.13 44.444-30.553 64.238-7.043 11.803-13.511 22.032-19.418 30.693-5.899 8.658-10.848 15.037-14.842 19.126-4 4.093-7.61 7.372-10.852 9.849-3.237 2.478-5.708 3.525-7.419 3.142-1.715-.383-3.33-.763-4.859-1.143-2.663-1.714-4.805-4.045-6.42-6.995-1.622-2.95-2.714-6.663-3.285-11.136-.568-4.476-.904-8.326-1-11.563-.089-3.233-.048-7.806.145-13.706.198-5.903.287-9.897.287-11.991 0-7.234.141-15.085.424-23.555.288-8.47.521-15.181.716-20.125.194-4.949.284-10.185.284-15.705s-.336-9.849-1-12.991a44.442 44.442 0 0 0-2.99-9.137c-1.335-2.95-3.289-5.232-5.853-6.852-2.569-1.618-5.763-2.902-9.564-3.856-10.089-2.283-22.936-3.518-38.547-3.71-35.401-.38-58.148 1.906-68.236 6.855-3.997 2.091-7.614 4.948-10.848 8.562-3.427 4.189-3.905 6.475-1.431 6.851 11.422 1.711 19.508 5.804 24.267 12.275l1.715 3.429c1.334 2.474 2.666 6.854 3.999 13.134 1.331 6.28 2.19 13.227 2.568 20.837.95 13.897.95 25.793 0 35.689-.953 9.9-1.853 17.607-2.712 23.127-.859 5.52-2.143 9.993-3.855 13.418-1.715 3.426-2.856 5.52-3.428 6.28-.571.76-1.047 1.239-1.425 1.427a21.387 21.387 0 0 1-7.71 1.431c-2.667 0-5.901-1.334-9.707-4-3.805-2.666-7.754-6.328-11.847-10.992-4.093-4.665-8.709-11.184-13.85-19.558-5.137-8.374-10.467-18.271-15.987-29.691l-4.567-8.282c-2.855-5.328-6.755-13.086-11.704-23.267-4.952-10.185-9.329-20.037-13.134-29.554-1.521-3.997-3.806-7.04-6.851-9.134l-1.429-.859c-.95-.76-2.475-1.567-4.567-2.427a30.301 30.301 0 0 0-6.567-1.854l-78.229.568c-7.994 0-13.418 1.811-16.274 5.428l-1.143 1.711c-.571.953-.859 2.475-.859 4.57 0 2.094.571 4.664 1.714 7.707 11.42 26.84 23.839 52.725 37.257 77.659 13.418 24.934 25.078 45.019 34.973 60.237 9.897 15.229 19.985 29.602 30.264 43.112 10.279 13.515 17.083 22.176 20.412 25.981 3.333 3.812 5.951 6.662 7.854 8.565l7.139 6.851c4.568 4.569 11.276 10.041 20.127 16.416 8.853 6.379 18.654 12.659 29.408 18.85 10.756 6.181 23.269 11.225 37.546 15.126 14.275 3.905 28.169 5.472 41.684 4.716h32.834c6.659-.575 11.704-2.669 15.133-6.283l1.136-1.431c.764-1.136 1.479-2.901 2.139-5.276.668-2.379 1-5 1-7.851-.195-8.183.428-15.558 1.852-22.124 1.423-6.564 3.045-11.513 4.859-14.846 1.813-3.33 3.859-6.14 6.136-8.418 2.282-2.283 3.908-3.666 4.862-4.142.948-.479 1.705-.804 2.276-.999 4.568-1.522 9.944-.048 16.136 4.429 6.187 4.473 11.99 9.996 17.418 16.56 5.425 6.57 11.943 13.941 19.555 22.124 7.617 8.186 14.277 14.271 19.985 18.274l5.708 3.426c3.812 2.286 8.761 4.38 14.853 6.283 6.081 1.902 11.409 2.378 15.984 1.427l73.087-1.14c7.229 0 12.854-1.197 16.844-3.572 3.998-2.379 6.373-5 7.139-7.851.764-2.854.805-6.092.145-9.712-.677-3.611-1.344-6.136-2.008-7.563z"/></symbol><symbol viewBox="0 0 431.771 431.771" id="icon-zarubej-music"><path d="M332.314 239.837a15.697 15.697 0 0 0 14.711 10.219h69.044c8.664 0 15.701-7.029 15.701-15.701 0-8.66-7.037-15.701-15.701-15.701h-58.144L326.647 134.7c-2.236-6.014-7.927-10.057-14.335-10.215-6.455-.134-12.282 3.619-14.811 9.506l-28.236 65.866-36.532-136.155c-1.884-7.077-8.491-11.936-15.726-11.621a15.693 15.693 0 0 0-14.853 12.717l-43.703 226.947-30.978-122.495a15.715 15.715 0 0 0-14.349-11.834c-6.899-.294-13.167 3.749-15.577 10.169l-22.506 60.018H15.699C7.025 227.603 0 234.631 0 243.304c0 8.664 7.025 15.7 15.699 15.7h70.214a15.706 15.706 0 0 0 14.704-10.198l8.706-23.22 35.962 142.256c1.773 6.993 8.057 11.862 15.214 11.862.156 0 .307 0 .463-.008a15.712 15.712 0 0 0 14.966-12.728l44.15-229.239L250.69 251.75a15.693 15.693 0 0 0 14.046 11.598c6.561.433 12.908-3.326 15.537-9.474l30.629-71.471 21.412 57.434z"/></symbol></svg>