<svg xmlns="http://www.w3.org/2000/svg"><symbol viewBox="0 0 512 512" id="icon-author"><circle cx="277.823" cy="301.714" r="9.143"/><path d="M486.255 220.993c.205-.209.48-.326.705-.516a45.243 45.243 0 0 1 19.435-9.281v-64.911H181.002l-22.036 22.068v14.504a9.143 9.143 0 0 1-18.286 0v-14.5l-22.098-22.098-107.469.022a27.413 27.413 0 0 1-5.433 27.433 27.339 27.339 0 0 1 7 18.286 27.432 27.432 0 0 1-7.076 18.304c9.433 10.358 9.435 26.193.004 36.553a27.277 27.277 0 0 1 6.83 15.737c.303.818.477 1.677.514 2.549 0 .228-.054 1.37-.071 1.598a9.32 9.32 0 0 1-.544 2.036 27.374 27.374 0 0 1-6.671 14.651c9.344 10.402 9.352 26.173.018 36.585a27.233 27.233 0 0 1 6.996 18.272 27.6 27.6 0 0 1-2.875 12.219c-.143.36-.31.711-.5 1.049a27.907 27.907 0 0 1-3.621 5.027A27.4 27.4 0 0 1 11.113 384h107.531l22.036-22.068v-14.504a9.143 9.143 0 0 1 18.286 0v14.5l22.098 22.098L506.395 384v-83.165a45.672 45.672 0 0 1-35.184-33.586 45.671 45.671 0 0 1 15.044-46.256zM113.252 347.429c-.01 10.095-8.191 18.276-18.286 18.286H49.252c-10.095-.01-18.276-8.191-18.286-18.286V182.857c.01-10.095 8.191-18.276 18.286-18.286h45.714c10.095.01 18.276 8.191 18.286 18.286v164.572zm45.714-36.572a9.143 9.143 0 0 1-18.286 0v-27.429a9.143 9.143 0 0 1 18.286 0v27.429zm0-64a9.143 9.143 0 0 1-18.286 0v-27.429a9.143 9.143 0 0 1 18.286 0v27.429zm292.572 100.572c-.01 10.095-8.191 18.276-18.286 18.286H204.681c-10.095-.01-18.276-8.191-18.286-18.286V182.857c.01-10.095 8.191-18.276 18.286-18.286h228.571c10.095.01 18.276 8.191 18.286 18.286v164.572z"/><circle cx="350.966" cy="301.714" r="9.143"/><path d="M49.252 182.857v18.286h9.143a9.143 9.143 0 0 1 0 18.286h-9.143v18.286h18.286a9.143 9.143 0 0 1 0 18.286H49.252v18.286h18.286a9.143 9.143 0 0 1 0 18.286H49.252v18.286h9.143a9.143 9.143 0 0 1 0 18.286h-9.143v18.286H94.98l-.013-164.571H49.252zm82.259-49.527l18.313 18.313 18.313-18.313a18.317 18.317 0 0 1 12.866-5.33h290.991C426.309 48.798 341.828 0 250.395 0S74.481 48.798 28.797 128h89.848a18.321 18.321 0 0 1 12.866 5.33zm73.17 49.527v164.571h228.585l-.013-164.571H204.681zm173.714 118.857c0 15.148-12.28 27.429-27.429 27.429s-27.429-12.28-27.429-27.429 12.28-27.429 27.429-27.429c3.122.031 6.215.601 9.143 1.685v-53.975l-54.857 13.714v66.004c0 15.148-12.28 27.429-27.429 27.429s-27.429-12.28-27.429-27.429 12.28-27.429 27.429-27.429c3.122.031 6.215.601 9.143 1.685V228.57a9.144 9.144 0 0 1 6.924-8.87l73.143-18.286a9.148 9.148 0 0 1 11.362 8.87v91.43zm-210.259 95.241l-18.313-18.313-18.313 18.313a18.317 18.317 0 0 1-12.866 5.33H40.219C88.12 471.027 166.61 512 250.395 512s162.275-40.972 210.176-109.714H181.002a18.318 18.318 0 0 1-12.866-5.331z"/></symbol><symbol viewBox="0 0 338.376 338.376" id="icon-category"><path d="M91.921 328.144c78.347-11.293 93.856-50.108 91.431-107.835-.806-17.524-1.579-35.041-2.396-52.578v-50.028c11.289-20.65 66.636-2.38 76.494-1.032 27.675 3.781 50.79-2.158 80.481-39.573l.444-6.091-1.479-2.901-5.883-1.617c-42.146 10.487-71.136-19.424-101.825-43.116-34.29-26.483-56.367-10.97-65.077-1.873-3.956 1.901-6.705 5.907-6.705 10.583v18.48c-.134 4.186-.114 8.368 0 12.562v138.953c-29.116-11.217-56.908-13.886-86.46-4.929-31.708 9.605-62.592 33.679-69.124 65.017-13.312 63.998 49.326 71.841 90.099 65.978z"/></symbol><symbol viewBox="0 0 60 60" id="icon-collectionsvg"><path d="M5 10h3v40H5zm47 0h3v40h-3zm5 4h3v32h-3zM0 14h3v32H0zm10 40h40V6H10v48zm9.5-18c1.746 0 3.331.642 4.5 1.68V18c0-.492.358-.911.844-.987l19-3a.99.99 0 0 1 .805.228A.995.995 0 0 1 45 15v21c0 3.309-2.916 6-6.5 6S32 39.309 32 36s2.916-6 6.5-6c1.746 0 3.331.642 4.5 1.68v-9.51l-17 2.684v17.248c0 .013-.007.025-.008.038C25.911 45.383 23.033 48 19.5 48c-3.584 0-6.5-2.691-6.5-6s2.916-6 6.5-6z"/></symbol><symbol viewBox="0 0 32 32" id="icon-list"><path d="M12 2h20v4H12V2zm0 12h20v4H12v-4zm0 12h20v4H12v-4zM0 4a4 4 0 1 1 8 0 4 4 0 0 1-8 0zm0 12a4 4 0 1 1 8 0 4 4 0 0 1-8 0zm0 12a4 4 0 1 1 8 0 4 4 0 0 1-8 0z"/></symbol><symbol viewBox="0 0 32 32" id="icon-music"><path d="M29.125 1H31v21.563c0 2.589-2.938 4.688-6.563 4.688s-6.563-2.099-6.563-4.688c0-2.589 2.938-4.688 6.563-4.688 1.836 0 3.496.539 4.688 1.407V8.5l-15 3.333v14.479c0 2.589-2.938 4.688-6.563 4.688S.999 28.901.999 26.312c0-2.589 2.938-4.688 6.563-4.688 1.836 0 3.496.539 4.688 1.407V4.749L29.125.999z"/></symbol><symbol viewBox="0 0 314.068 314.068" id="icon-play"><path d="M293.002 78.53C249.646 3.435 153.618-22.296 78.529 21.068 3.434 64.418-22.298 160.442 21.066 235.534c43.35 75.095 139.375 100.83 214.465 57.47 75.096-43.365 100.84-139.384 57.471-214.474zm-73.168 187.271c-60.067 34.692-136.894 14.106-171.576-45.973C13.568 159.761 34.161 82.935 94.23 48.26c60.071-34.69 136.894-14.106 171.578 45.971 34.685 60.076 14.098 136.886-45.974 171.57zm-6.279-115.149l-82.214-47.949c-7.492-4.374-13.535-.877-13.493 7.789l.421 95.174c.038 8.664 6.155 12.191 13.669 7.851l81.585-47.103c7.506-4.332 7.522-11.388.032-15.762z"/></symbol><symbol viewBox="0 0 466.466 466.466" id="icon-rock"><path d="M147.932 288.2s9.359 24.08 12.343 33.365h-16.268v14.788c-10.213 1.495-27.569 7.852-27.569 15.473 0 7.61 17.356 13.967 27.569 15.461v14.792h24.919v84.388h188.219v-84.388h14.218v-14.752c10.167-1.41 27.868-7.811 27.868-15.501 0-7.697-17.701-14.105-27.868-15.508v-14.752h-11.774V56.693c0-14.609-11.846-26.453-26.457-26.453s-26.457 11.844-26.457 26.453v54.138H200.852V26.455C200.852 11.844 189.008 0 174.395 0c-14.607 0-26.457 11.844-26.457 26.455v153.084s-41.575-35.911-65.194-16.322c-23.624 19.588-13.229 36.159-13.229 36.159l78.417 88.824zm215.588 41.216v7.254c-6.652 1.855-11.565 7.902-11.565 15.155 0 7.25 4.913 13.293 11.565 15.148v7.254H151.855v-7.161c6.817-1.748 11.872-7.883 11.872-15.241 0-7.369-5.055-13.5-11.872-15.248v-7.161H363.52z"/><path d="M202.884 367.619c8.724 0 15.797-7.077 15.797-15.794 0-8.724-7.073-15.801-15.797-15.801-8.72 0-23.644 7.077-23.644 15.801 0 8.725 14.924 15.794 23.644 15.794z"/><circle cx="257.84" cy="351.822" r="15.797"/><path d="M312.793 367.619c8.725 0 23.645-7.077 23.645-15.794 0-8.724-14.92-15.801-23.645-15.801-8.724 0-15.793 7.077-15.793 15.801 0 8.725 7.069 15.794 15.793 15.794z"/></symbol></svg>