<?xml version="1.0" encoding="iso-8859-1"?>
<!-- Generator: Adobe Illustrator 16.0.0, SVG Export Plug-In . SVG Version: 6.00 Build 0)  -->
<!DOCTYPE svg PUBLIC "-//W3C//DTD SVG 1.1//EN" "http://www.w3.org/Graphics/SVG/1.1/DTD/svg11.dtd">
<svg version="1.1" id="Capa_1" xmlns="http://www.w3.org/2000/svg" xmlns:xlink="http://www.w3.org/1999/xlink" x="0px" y="0px"
	 width="338.376px" height="338.376px" viewBox="0 0 338.376 338.376" style="enable-background:new 0 0 338.376 338.376;"
	 xml:space="preserve">
<g>
	<path d="M91.921,328.144c78.347-11.293,93.856-50.108,91.431-107.835c-0.806-17.524-1.579-35.041-2.396-52.578v-50.028
		c11.289-20.65,66.636-2.38,76.494-1.032c27.675,3.781,50.79-2.158,80.481-39.573l0.444-6.091l-1.479-2.901l-5.883-1.617
		c-42.146,10.487-71.136-19.424-101.825-43.116C194.898-3.11,172.821,12.403,164.111,21.5c-3.956,1.901-6.705,5.907-6.705,10.583
		v18.48c-0.134,4.186-0.114,8.368,0,12.562v138.953c-29.116-11.217-56.908-13.886-86.46-4.929
		c-31.708,9.605-62.592,33.679-69.124,65.017C-11.49,326.164,51.148,334.007,91.921,328.144z"/>
</g>
<g>
</g>
<g>
</g>
<g>
</g>
<g>
</g>
<g>
</g>
<g>
</g>
<g>
</g>
<g>
</g>
<g>
</g>
<g>
</g>
<g>
</g>
<g>
</g>
<g>
</g>
<g>
</g>
<g>
</g>
</svg>
