<?xml version="1.0" encoding="iso-8859-1"?>
<!-- Generator: Adobe Illustrator 19.0.0, SVG Export Plug-In . SVG Version: 6.00 Build 0)  -->
<svg version="1.1" id="Capa_1" xmlns="http://www.w3.org/2000/svg" xmlns:xlink="http://www.w3.org/1999/xlink" x="0px" y="0px"
	 viewBox="0 0 512 512" style="enable-background:new 0 0 512 512;" xml:space="preserve">
<g>
	<g>
		<g>
			<circle cx="277.823" cy="301.714" r="9.143"/>
			<path d="M486.255,220.993c0.205-0.209,0.48-0.326,0.705-0.516c5.637-4.613,12.304-7.797,19.435-9.281v-64.911H181.002
				l-22.036,22.068v14.504c0,5.049-4.093,9.143-9.143,9.143c-5.049,0-9.143-4.093-9.143-9.143v-14.5l-22.098-22.098l-107.469,0.022
				c3.34,9.45,1.257,19.97-5.433,27.433c4.511,5.022,7.004,11.535,7,18.286c-0.021,6.765-2.541,13.284-7.076,18.304
				c9.433,10.358,9.435,26.193,0.004,36.553c3.91,4.375,6.305,9.893,6.83,15.737c0.303,0.818,0.477,1.677,0.514,2.549
				c0,0.228-0.054,1.37-0.071,1.598c-0.104,0.697-0.286,1.38-0.544,2.036c-0.705,5.442-3.029,10.546-6.671,14.651
				c9.344,10.402,9.352,26.173,0.018,36.585c4.515,5.014,7.008,11.525,6.996,18.272c-0.007,4.24-0.991,8.421-2.875,12.219
				c-0.143,0.36-0.31,0.711-0.5,1.049c-1.017,1.805-2.231,3.491-3.621,5.027c6.686,7.46,8.768,17.975,5.429,27.42h107.531
				l22.036-22.068v-14.504c0-5.049,4.093-9.143,9.143-9.143c5.049,0,9.143,4.093,9.143,9.143v14.5l22.098,22.098L506.395,384
				v-83.165c-17.21-3.5-30.889-16.557-35.184-33.586C466.915,250.22,472.764,232.237,486.255,220.993z M113.252,347.429
				c-0.01,10.095-8.191,18.276-18.286,18.286H49.252c-10.095-0.01-18.276-8.191-18.286-18.286V182.857
				c0.01-10.095,8.191-18.276,18.286-18.286h45.714c10.095,0.01,18.276,8.191,18.286,18.286V347.429z M158.966,310.857
				c0,5.049-4.093,9.143-9.143,9.143c-5.049,0-9.143-4.093-9.143-9.143v-27.429c0-5.049,4.093-9.143,9.143-9.143
				c5.049,0,9.143,4.093,9.143,9.143V310.857z M158.966,246.857c0,5.049-4.093,9.143-9.143,9.143c-5.049,0-9.143-4.093-9.143-9.143
				v-27.429c0-5.049,4.093-9.143,9.143-9.143c5.049,0,9.143,4.093,9.143,9.143V246.857z M451.538,347.429
				c-0.01,10.095-8.191,18.276-18.286,18.286H204.681c-10.095-0.01-18.276-8.191-18.286-18.286V182.857
				c0.01-10.095,8.191-18.276,18.286-18.286h228.571c10.095,0.01,18.276,8.191,18.286,18.286V347.429z"/>
			<circle cx="350.966" cy="301.714" r="9.143"/>
			<path d="M49.252,182.857v18.286h9.143c5.049,0,9.143,4.093,9.143,9.143c0,5.049-4.093,9.143-9.143,9.143h-9.143v18.286h18.286
				c5.049,0,9.143,4.093,9.143,9.143c0,5.049-4.093,9.143-9.143,9.143H49.252v18.286h18.286c5.049,0,9.143,4.093,9.143,9.143
				s-4.093,9.143-9.143,9.143H49.252v18.286h9.143c5.049,0,9.143,4.093,9.143,9.143c0,5.049-4.093,9.143-9.143,9.143h-9.143v18.286
				H94.98l-0.013-164.571H49.252z"/>
			<path d="M131.511,133.33l18.313,18.313l18.313-18.313c3.42-3.401,8.043-5.317,12.866-5.33h290.991
				C426.309,48.798,341.828,0,250.395,0S74.481,48.798,28.797,128h89.848C123.468,128.014,128.091,129.929,131.511,133.33z"/>
			<path d="M204.681,182.857v164.571h228.585l-0.013-164.571H204.681z M378.395,301.714c0,15.148-12.28,27.429-27.429,27.429
				s-27.429-12.28-27.429-27.429s12.28-27.429,27.429-27.429c3.122,0.031,6.215,0.601,9.143,1.685v-53.975l-54.857,13.714v66.004
				c0,15.148-12.28,27.429-27.429,27.429s-27.429-12.28-27.429-27.429s12.28-27.429,27.429-27.429
				c3.122,0.031,6.215,0.601,9.143,1.685v-47.399c0-4.195,2.855-7.852,6.924-8.87l73.143-18.286
				c2.731-0.682,5.625-0.067,7.844,1.665c2.219,1.732,3.517,4.39,3.518,7.205V301.714z"/>
			<path d="M168.136,396.955l-18.313-18.313l-18.313,18.313c-3.42,3.401-8.043,5.317-12.866,5.33H40.219
				C88.12,471.027,166.61,512,250.395,512s162.275-40.972,210.176-109.714H181.002C176.179,402.272,171.556,400.357,168.136,396.955
				z"/>
		</g>
	</g>
</g>
<g>
</g>
<g>
</g>
<g>
</g>
<g>
</g>
<g>
</g>
<g>
</g>
<g>
</g>
<g>
</g>
<g>
</g>
<g>
</g>
<g>
</g>
<g>
</g>
<g>
</g>
<g>
</g>
<g>
</g>
</svg>
